<svg id="Layer_1" enable-background="new 0 0 512 512" height="512" viewBox="0 0 512 512" width="512" xmlns="http://www.w3.org/2000/svg"><g><g><path d="m292.028 116.782h167.734c-44.006-65.94-118.188-107.357-203.837-107.357-8.638 0-17.147.407-25.513 1.2 2.203 43.135 28.124 88.708 61.616 106.157z"/></g><g><path d="m238.779 116.782c-8.505-9.732-16.095-20.916-22.484-33.265-11.161-21.569-17.862-44.868-19.575-67.438-60.632 14.055-111.426 49.724-144.71 100.703z"/></g><g><path d="m498.18 150.754h-484.36c-7.633 0-13.82 6.187-13.82 13.82v183.469c0 7.633 6.187 13.82 13.82 13.82h484.36c7.633 0 13.82-6.187 13.82-13.82v-183.469c0-7.632-6.187-13.82-13.82-13.82zm-365.102 149.84c0 7.323-4.693 13.822-11.645 16.125-1.757.582-3.558.863-5.339.863-5.268 0-10.363-2.456-13.63-6.846l-36.455-48.988v38.847c0 9.381-7.605 16.986-16.986 16.986s-16.986-7.605-16.986-16.986v-90.126c0-7.323 4.693-13.822 11.645-16.125 6.95-2.302 14.596.109 18.968 5.984l36.455 48.988v-38.847c0-9.381 7.605-16.986 16.986-16.986s16.986 7.605 16.986 16.986v90.125zm80.995-60.842c9.381 0 16.986 7.605 16.986 16.986s-7.605 16.986-16.986 16.986h-22.882v9.883h22.882c9.381 0 16.986 7.605 16.986 16.986s-7.605 16.986-16.986 16.986h-39.868c-9.381 0-16.986-7.605-16.986-16.986v-89.992c0-9.381 7.605-16.986 16.986-16.986h39.868c9.381 0 16.986 7.605 16.986 16.986s-7.605 16.986-16.986 16.986h-22.882v12.164h22.882zm152.734 61.78c0 7.361-4.741 13.885-11.743 16.157-1.726.56-3.493.831-5.241.831-5.34.001-10.495-2.524-13.752-7.013l-24.618-33.936-25.692 34.17c-4.392 5.84-12.03 8.215-18.958 5.903-6.931-2.315-11.605-8.804-11.605-16.111v-90.497c0-9.381 7.605-16.986 16.986-16.986s16.986 7.605 16.986 16.986v39.642l8.95-11.904c3.24-4.308 8.34-6.788 13.722-6.777 5.391.046 10.439 2.648 13.604 7.011l7.387 10.183v-38.154c0-9.381 7.605-16.986 16.986-16.986s16.986 7.605 16.986 16.986v90.495zm74.994 16.986h-33.541c-9.381 0-16.986-7.605-16.986-16.986s7.605-16.986 16.986-16.986h33.541c3.917 0 7.104-3.187 7.104-7.103 0-3.917-3.187-7.104-7.104-7.104h-12.611c-21.087 0-38.242-17.155-38.242-38.242 0-21.086 17.155-38.242 38.242-38.242h24.555c9.381 0 16.986 7.605 16.986 16.986s-7.605 16.986-16.986 16.986h-24.555c-2.354 0-4.269 1.915-4.269 4.269s1.915 4.269 4.269 4.269h12.611c22.649 0 41.076 18.427 41.076 41.076 0 22.651-18.427 41.077-41.076 41.077z"/></g><g><path d="m289.216 415.058c-2.039-6.841-3.04-13.112-3.571-19.223h-233.146c43.99 65.763 117.873 106.739 203.426 106.739 30.801 0 59.7-5.45 86.19-15.381-21.542-16.969-44.063-42.491-52.899-72.135z"/></g><g><path d="m319.798 395.835c.4 3.179 1.009 6.277 1.975 9.519 7.917 26.562 34.166 52.19 55.204 64.76.193.115.367.249.554.37 32.113-18.497 59.54-44.136 81.082-74.649z"/></g></g></svg>